<svg width="885" height="885" viewBox="0 0 885 885" fill="none" xmlns="http://www.w3.org/2000/svg">
<g clip-path="url(#clip0_35_2)">
<path d="M443 848C305.635 848 194 736.365 194 599C194 461.635 305.635 350 443 350C580.365 350 692 461.635 692 599C692 736.365 580.365 848 443 848ZM443 370.75C317.255 370.75 214.75 473.255 214.75 599C214.75 724.745 317.255 827.25 443 827.25C568.745 827.25 671.25 724.745 671.25 599C671.25 473.255 568.745 370.75 443 370.75Z" fill="white"/>
<path d="M443.5 848C374.772 848 321 738.44 321 599C321 459.56 374.772 350 443.5 350C512.228 350 566 459.56 566 599C566 738.44 512.228 848 443.5 848ZM443.5 370.75C385.811 370.75 338.449 473.255 338.449 599C338.449 724.745 385.455 827.25 443.5 827.25C501.545 827.25 548.551 724.745 548.551 599C548.551 473.255 501.189 370.75 443.5 370.75Z" fill="white"/>
<path d="M224.277 494H663.44V510.546H224.277V494ZM224.277 705.454H663.44V722H224.277V705.454ZM171 616.107H708H179.717H171Z" fill="white"/>
</g>
<line x1="443" y1="352" x2="443" y2="270" stroke="white" stroke-width="20"/>
<line x1="445.929" y1="279.054" x2="518.054" y2="206.929" stroke="white" stroke-width="20"/>
<line x1="440.054" y1="279.196" x2="367.929" y2="207.071" stroke="white" stroke-width="20"/>
<path d="M371.432 211.548L371.421 213.123L370.246 212.989C340.441 209.575 312.478 196.825 290.356 176.562L288.709 175.054C281.669 168.605 275.404 161.36 270.038 153.464C253.932 129.761 246.615 101.141 249.309 72.6397C277.297 74.4431 303.836 85.8099 324.463 104.863L326.627 106.863C333.706 113.402 340.039 120.705 345.51 128.638L346.263 129.73C362.845 153.776 371.631 182.34 371.432 211.548Z" stroke="white" stroke-width="13"/>
<path d="M634.66 73.437L636.221 73.2284L636.252 74.4111C637.019 104.401 628.285 133.866 611.298 158.592L610.033 160.433C604.627 168.302 598.325 175.515 591.252 181.927C570.021 201.175 542.699 212.405 514.1 213.703C511.99 185.737 519.553 157.874 535.55 134.796L537.229 132.375C542.719 124.454 549.07 117.167 556.165 110.645L557.14 109.748C578.645 89.9809 605.708 77.3044 634.66 73.437Z" stroke="white" stroke-width="13"/>
<defs>
<clipPath id="clip0_35_2">
<rect width="498" height="498" fill="white" transform="translate(194 350)"/>
</clipPath>
</defs>
</svg>
